<svg xmlns="http://www.w3.org/2000/svg" xmlns:xlink="http://www.w3.org/1999/xlink" viewBox="0 0 126.19 173.96"><defs><style>.cls-1{isolation:isolate;}.cls-2{fill:url(#linear-gradient);}.cls-3{fill:#ffb052;}.cls-4{fill:#994c00;}.cls-5{fill:#2d0a0b;}.cls-10,.cls-11,.cls-6{fill:#512109;}.cls-6{opacity:0.32;}.cls-7,.cls-9{fill:#fff;}.cls-7,.cls-8{opacity:0.47;mix-blend-mode:soft-light;}.cls-8{fill:#ffe1c0;}.cls-9{opacity:0.46;}.cls-11{opacity:0.21;}</style><linearGradient id="linear-gradient" x1="89.58" y1="18.62" x2="61.79" y2="18.62" gradientUnits="userSpaceOnUse"><stop offset="0.01" stop-color="#642903"/><stop offset="1" stop-color="#2d0a0b"/></linearGradient></defs><title>Asset 9</title><g class="cls-1"><g id="Layer_2" data-name="Layer 2"><g id="page01_motion2"><path class="cls-2" d="M86,13.66a9.23,9.23,0,0,0-6.12-10.1,10.22,10.22,0,0,0-1.56-.41,6.76,6.76,0,0,0-1.49,0,6.84,6.84,0,0,0-2.94,1A16.62,16.62,0,0,0,68.94,9a24.27,24.27,0,0,0-1.88,3.07c-.26.53-.57,1-.79,1.59l-.63,1.66a23,23,0,0,0-1,7.13,31.15,31.15,0,0,0,1,7.28,37.63,37.63,0,0,0,2.5,7l-.88.46a35.75,35.75,0,0,1-4.62-14.68,25,25,0,0,1,.63-7.88l.6-1.92c.21-.64.52-1.24.78-1.86a23.57,23.57,0,0,1,2-3.47A19.77,19.77,0,0,1,72.29,1.6,9.88,9.88,0,0,1,76.43.08a9.66,9.66,0,0,1,2.28,0,13.85,13.85,0,0,1,2.12.48,12.65,12.65,0,0,1,8.65,13.63Z"/><path class="cls-3" d="M3.08,81.63V97.78A72.37,72.37,0,0,0,38,159.68l10.18,6.15L61.55,174l25.27-14.53a72.45,72.45,0,0,0,36.29-62.72V81.63H107.35l-.57.07h-.08l-.5.06c-.33.07-.67.1-1,.14l-.62.08c-6.25.78-13.54,1.55-21.5,2-.27,0-.55,0-.84.06H82l-.64.05h-.07l-.79,0h-.1c-.22,0-.44,0-.67,0-5.34.3-10.94.47-16.68.47-1.89,0-3.75,0-5.61,0a5.52,5.52,0,0,0-.57,0h-.76l-.32,0h-.62c-.26,0-.53,0-.8,0-7.78-.23-15.22-.75-21.91-1.38L32,83.13l-.9-.09h-.17l-.5,0-.36,0c-.24,0-.49,0-.72-.07s-.72-.08-1.09-.13c-3.33-.34-6.45-.74-9.31-1.1Z"/><path class="cls-4" d="M11.08,53.86l1-1.33A57.66,57.66,0,0,1,25.25,40.06c.45-.31.91-.61,1.37-.91a58.83,58.83,0,0,1,17.05-7.44c.63-.17,1.26-.34,1.91-.48s1.49-.34,2.26-.49c4.65-.93,9.73.1,15.25.1h.85c.85,0,1.68,0,2.51-.08l4.15-.25,2.28-.12a27.59,27.59,0,0,1,6.14.39,66.76,66.76,0,0,1,10,2.74c.57.21,1.13.41,1.66.64a56.32,56.32,0,0,1,15.62,9.22c.42.35.83.71,1.22,1.05A56.68,56.68,0,0,1,119.6,59.65c.31.55.6,1.09.88,1.65,4.18,8.23,5.71,16,5.71,20.33,0,0-1.1.23-3.08.6-3,.55-8.07,1.43-14.61,2.32l-1.72.23h-.08c-.49.08-1,.14-1.5.2-6.61.85-14.42,1.66-23,2.19H82l-1.5.09h-.1c-5.54.33-11.38.51-17.35.51-2.07,0-4.14,0-6.18-.06h-.08l-1.6,0h0C46.92,87.44,39,86.89,32,86.21l-.9-.09c-.23,0-.44-.05-.67-.06l-1.08-.13c-12.14-1.26-21.61-2.86-26.22-3.7-2-.37-3.08-.6-3.08-.6C0,77.24,2.77,65.27,11.08,53.86Z"/><path class="cls-5" d="M70.6,30.5A123.23,123.23,0,0,1,81.34,40.62l1.11,1.18A104.6,104.6,0,0,1,94.32,57.48c.32.52.63,1.05.93,1.57A79.14,79.14,0,0,1,105.2,85c.5-.06,1-.12,1.5-.2h.08a.66.66,0,0,1,0-.15A79.23,79.23,0,0,0,96.32,57.56c-.14-.25-.3-.49-.45-.76s-.32-.52-.49-.78A101.89,101.89,0,0,0,83.59,40.65c-.35-.39-.71-.77-1.09-1.17a120.33,120.33,0,0,0-9.62-9.1Z"/><path class="cls-5" d="M43.67,31.71a122.8,122.8,0,0,1,10.08,8.94c.39.38.77.77,1.14,1.15A106.49,106.49,0,0,1,67.66,57.39c.36.52.7,1,1,1.54A81.4,81.4,0,0,1,80.44,87.27c0,.1,0,.17,0,.25a2.27,2.27,0,0,0,.06-.25l1.5-.09c-.17-1-.39-2-.67-3.18A82.51,82.51,0,0,0,71.25,59.88c-.49-.81-1-1.65-1.57-2.49-.32-.49-.66-1-1-1.51A107.29,107.29,0,0,0,56,40.62c-.37-.39-.77-.77-1.16-1.14a120.63,120.63,0,0,0-9.26-8.25C44.93,31.37,44.3,31.54,43.67,31.71Z"/><path class="cls-5" d="M25.25,40.06A112.53,112.53,0,0,1,41,57.56c.35.49.7,1,1.06,1.49A85.23,85.23,0,0,1,55.23,87.64v0l1.6,0h.08c0-.06,0-.14,0-.2-.25-1.09-.54-2.28-.89-3.52a85.73,85.73,0,0,0-9.34-21c-1.06-1.76-2.27-3.57-3.6-5.46-.34-.5-.7-1-1.07-1.48A112.69,112.69,0,0,0,26.62,39.15C26.16,39.45,25.7,39.75,25.25,40.06Z"/><path class="cls-5" d="M11.08,53.86A92.09,92.09,0,0,1,29.3,85.93l1.08.13c.23,0,.44,0,.67.06-.13-.49-.29-1-.46-1.49A85.77,85.77,0,0,0,22,66,101.57,101.57,0,0,0,12.1,52.53Z"/><path class="cls-5" d="M30.38,86.06c.23,0,.44,0,.67.06l.9.09A77.71,77.71,0,0,1,42.09,59.05c.29-.52.6-1,.94-1.55A103.25,103.25,0,0,1,54.89,41.8L56,40.62a122.39,122.39,0,0,1,10.45-9.87c-.83.05-1.66.08-2.51.08a121.61,121.61,0,0,0-9.1,8.65l-1.09,1.17A101.89,101.89,0,0,0,42,56c-.17.26-.33.52-.49.78s-.31.51-.44.76A79.09,79.09,0,0,0,30.59,84.63C30.5,85.13,30.44,85.61,30.38,86.06Z"/><path class="cls-5" d="M55.21,87.67h0l1.6,0a1.06,1.06,0,0,0,0-.2,81.38,81.38,0,0,1,11.8-28.59c.33-.51.66-1,1-1.54A106.49,106.49,0,0,1,82.45,41.8l1.14-1.15c2.19-2.17,4.54-4.33,7.09-6.5-.53-.23-1.09-.43-1.66-.64-2.34,2-4.51,4-6.52,6-.4.37-.79.75-1.16,1.14A107.54,107.54,0,0,0,68.66,55.88l-1,1.51c-.55.84-1.07,1.68-1.57,2.49A82.51,82.51,0,0,0,56,84c-.33,1.35-.56,2.56-.74,3.64C55.23,87.66,55.23,87.66,55.21,87.67Z"/><path class="cls-5" d="M80.54,87.27l1.5-.09a3.65,3.65,0,0,1,.07.46c0-.15.08-.31.13-.47a85.15,85.15,0,0,1,13-28.12c.36-.49.71-1,1.07-1.49a106.68,106.68,0,0,1,11.2-13.14c-.39-.34-.8-.7-1.22-1.05A106.59,106.59,0,0,0,95.38,56c-.37.49-.73,1-1.06,1.46q-2,2.84-3.61,5.48a85.73,85.73,0,0,0-9.34,21C81.05,85.15,80.77,86.26,80.54,87.27Z"/><path class="cls-5" d="M106.7,84.78h.08l1.72-.23a88.3,88.3,0,0,1,12-23.25c-.28-.56-.57-1.1-.88-1.65-1.62,2.22-3,4.36-4.26,6.39a85.38,85.38,0,0,0-8.59,18.59A.25.25,0,0,0,106.7,84.78Z"/><path class="cls-6" d="M123.11,82.23l-3.74.66c.66.8,1.28,1.63,1.86,2.47l1.88-.55Z"/><path class="cls-7" d="M31.39,120.42A66.24,66.24,0,0,0,39,152.6a64.86,64.86,0,0,0,9.19,13.23L61.55,174l25.27-14.53a72.45,72.45,0,0,0,36.29-62.72V88.23c-.59-1-1.22-1.93-1.88-2.87a205.41,205.41,0,0,1-31.35,6.71h0a207.89,207.89,0,0,1-22.42,1.8h0c-1.92,0-3.88.07-5.88.07A207.89,207.89,0,0,1,37,92.43a48.57,48.57,0,0,0-4.56,16.06L31.75,115C31.55,116.8,31.44,118.62,31.39,120.42Z"/><path class="cls-8" d="M70.86,155.47l5.57,3.28,6.14-2A37.53,37.53,0,0,0,108,125l.4-3.69A27.9,27.9,0,0,0,89.88,92.07h0a207.89,207.89,0,0,1-22.42,1.8h0A27.88,27.88,0,0,0,52.94,115.5l-.39,3.69A37.52,37.52,0,0,0,70.86,155.47Z"/><path class="cls-9" d="M73.85,145.46l3.75,2.21,4.14-1.38a25.31,25.31,0,0,0,17.17-21.37l.26-2.49a18.79,18.79,0,0,0-16.73-20.67h0a18.81,18.81,0,0,0-20.68,16.73L61.5,121A25.31,25.31,0,0,0,73.85,145.46Z"/><path class="cls-10" d="M107,91.63a85.18,85.18,0,0,1,.72,19.41,83,83,0,0,1-1.24,9.67,59.51,59.51,0,0,1-2.56,9.39c.53-3.21,1-6.38,1.4-9.57s.71-6.39.91-9.59.39-6.41.51-9.63S106.9,94.87,107,91.63Z"/><path class="cls-10" d="M30.34,91.63c0,3.24.15,6.46.25,9.68s.28,6.43.52,9.63.54,6.4.9,9.59.88,6.36,1.4,9.57a59.48,59.48,0,0,1-2.55-9.39,87.93,87.93,0,0,1-.52-29.08Z"/><path class="cls-10" d="M51.48,132.79c.28,2.35.44,4.69.59,7l.41,7,.35,7c.11,2.34.23,4.68.26,7a51.44,51.44,0,0,1-1.42-6.94c-.34-2.33-.55-4.68-.68-7s-.16-4.71-.08-7.07A61.83,61.83,0,0,1,51.48,132.79Z"/><path class="cls-10" d="M14.72,91.85a38,38,0,0,1,.49,4.21c.12,1.4.17,2.79.23,4.19s.09,2.78.08,4.18,0,2.81-.13,4.24a22.19,22.19,0,0,1-1-4.14A33.28,33.28,0,0,1,14,100.3a35.31,35.31,0,0,1,.1-4.24A24.27,24.27,0,0,1,14.72,91.85Z"/><path class="cls-10" d="M83,118a25.29,25.29,0,0,1,.68,4.21,40,40,0,0,1,.1,4.24,35.23,35.23,0,0,1-.42,4.23,21.43,21.43,0,0,1-1,4.14c-.12-1.43-.14-2.84-.13-4.24s0-2.79.08-4.18.12-2.79.23-4.19A38.26,38.26,0,0,1,83,118Z"/><path class="cls-11" d="M3.08,82.23V97.78A72.37,72.37,0,0,0,38,159.68l10.18,6.15L61.55,174l25.27-14.53a71.94,71.94,0,0,0,18.51-15.24l-.69.53S78.48,163.18,61.55,167.8A213.79,213.79,0,0,1,39,152.6c-7-5.5-13.44-11.67-15.87-17.12-3.23-7.27-3.37-19.48-2.75-29.39a14.65,14.65,0,0,1,9.89-13,14.85,14.85,0,0,1,6.6-.7l.16,0a207.89,207.89,0,0,0,24.57,1.51c2,0,4,0,5.88-.07h0a207.89,207.89,0,0,0,22.42-1.8h0a205.41,205.41,0,0,0,31.35-6.71c-.58-.84-1.2-1.67-1.86-2.47-1.23.21-2.62.44-4.16.67-1,.17-2.06.33-3.18.5a2.76,2.76,0,0,0-.4.06l-1.54.21-1.59.22-1.72.23h-.08c-.49.08-1,.14-1.5.2-6.61.85-14.42,1.66-23,2.19H82l-1.5.09h-.1c-5.54.33-11.38.51-17.35.51-2.07,0-4.14,0-6.18-.06h-.08l-1.6,0h0c-2.06-.06-4.1-.12-6.11-.23q-4.64-.21-9-.55c-2.8-.2-5.52-.43-8.12-.68l-.9-.09c-.23,0-.44-.05-.67-.06l-1.08-.13C17.16,84.67,7.69,83.07,3.08,82.23Z"/></g></g></g></svg>