<svg xmlns="http://www.w3.org/2000/svg" xmlns:xlink="http://www.w3.org/1999/xlink" viewBox="0 0 1365 327.98"><defs><style>.cls-1,.cls-2{fill-rule:evenodd;}.cls-1{fill:url(#radial-gradient);}.cls-2{fill:url(#radial-gradient-2);}</style><radialGradient id="radial-gradient" cx="707.25" cy="125.85" r="473.54" gradientUnits="userSpaceOnUse"><stop offset="0" stop-color="#e97c68"/><stop offset="1" stop-color="#f5bf91"/></radialGradient><radialGradient id="radial-gradient-2" cx="644.25" cy="201.99" r="464.18" xlink:href="#radial-gradient"/></defs><title>Asset 13</title><g id="Layer_2" data-name="Layer 2"><g id="Layer_1-2" data-name="Layer 1"><path class="cls-1" d="M1053.5,62.69C884.64,57.4,808-14.58,647.5,2.66,539,14.31,436.87,79.19,342.86,134.07,246.11,190.55,158,236.43,80.5,202.77a156.79,156.79,0,0,1-31-18C61.44,210.49,76.86,228,95.5,239c86.43,50.94,215.72-63.3,368.2-131.29C526.49,79.7,593.22,59.55,662.5,62c163.88,5.8,237.73,109.3,409,146,94.47,20.24,192.21,23.32,293.5,9.92V23C1261.84,52.31,1158,66,1053.5,62.69Z"/><path class="cls-2" d="M1257.5,279c-152.78,66.45-346.9-176.67-567-200.33-92.14-9.91-156.64,9.61-226.8,29.05C426.64,118,388,128.21,342.86,134.07c-18.28,2.38-37.62,4-58.36,4.69-95.39,3-190.22-8.13-284.5-32.44v191c91.68,9.54,180.45,5.34,266.5-13.12,171.27-36.73,245.12-140.35,409-146.16,237.51-8.42,445,249.19,567,177.2,18.64-11,34.06-28.55,46-54.31A156.41,156.41,0,0,1,1257.5,279Z"/></g></g></svg>