<svg xmlns="http://www.w3.org/2000/svg" xmlns:xlink="http://www.w3.org/1999/xlink" viewBox="0 0 1366 635.66"><defs><style>.cls-1{fill-rule:evenodd;fill:url(#linear-gradient);}.cls-2,.cls-3{opacity:0.15;}.cls-2{fill:url(#linear-gradient-2);}.cls-3{fill:url(#linear-gradient-3);}.cls-4{opacity:0.23;}.cls-5{fill:#fff;}</style><linearGradient id="linear-gradient" x1="242.94" y1="629.13" x2="969.55" y2="-37.32" gradientUnits="userSpaceOnUse"><stop offset="0" stop-color="#f5bf91"/><stop offset="1" stop-color="#e97c68"/></linearGradient><linearGradient id="linear-gradient-2" x1="629.38" y1="236.98" x2="629.38" y2="892" gradientUnits="userSpaceOnUse"><stop offset="0" stop-color="#fff"/><stop offset="1" stop-color="#b93514"/></linearGradient><linearGradient id="linear-gradient-3" x1="989.4" y1="-138.95" x2="989.4" y2="313.34" gradientUnits="userSpaceOnUse"><stop offset="0" stop-color="#b93514"/><stop offset="1" stop-color="#fff"/></linearGradient></defs><title>Asset 10</title><g id="Layer_2" data-name="Layer 2"><g id="Layer_1-2" data-name="Layer 1"><path class="cls-1" d="M1366,0V451a156.47,156.47,0,0,0-31-18c-91.94-39.88-197.74,31.91-315.38,100.67C941.52,579.29,858.24,623.58,770.35,633,609.64,650.23,533,578.29,363.9,573a979.27,979.27,0,0,0-124.73,4.07C159.07,584.8,79.45,602.3,0,629V0Z"/><path class="cls-2" d="M1019.59,533.67C941.52,579.29,858.24,623.58,770.35,633,609.64,650.23,533,578.29,363.9,573a979.27,979.27,0,0,0-124.73,4.07A432.5,432.5,0,0,1,399.75,374l143.62-97.84A168.74,168.74,0,0,1,733,275.91l144.84,98.15A432.54,432.54,0,0,1,1019.59,533.67Z"/><path class="cls-3" d="M1366,0V172a432.54,432.54,0,0,1-96.72,89.84L1124.44,360a168.74,168.74,0,0,1-189.64-.23L791.18,261.89A432.47,432.47,0,0,1,612.8,0Z"/><g class="cls-4"><path class="cls-5" d="M100.06,166.42l-5.83-5.71c-11.45-11.25-31.62-12.79-45-3.44A5.15,5.15,0,0,0,48,164.53a5.36,5.36,0,0,0,7.29,1.27l11.74,11.52c6.1,6,7.5,11.89,6.63,17.12-12.92-1-25.86-7-36-17s-16.33-22.67-17.33-35.36c5.33-.85,11.34.52,17.44,6.51a5.39,5.39,0,0,0,7.49,0,5.14,5.14,0,0,0,0-7.36c-9.33-9.16-20.69-11.9-31.84-8.09-.22.07-.45.14-.66.23a39.06,39.06,0,0,0-9.61,5.24c-1.08.79-2.13,1.64-3.17,2.55v15.36a47,47,0,0,1,9.51-9.58l.66-.47c2,13.91,9,27.52,20,38.32a69.94,69.94,0,0,0,39,19.65l-.48.64C56,221.77,24.91,232.92,0,226v10.74a71.87,71.87,0,0,0,15.93,1.74c24.4,0,49.29-11.41,61.3-27.18a37.44,37.44,0,0,0,5.34-9.43,3.91,3.91,0,0,0,.24-.68c3.88-10.92,1.08-22.07-8.25-31.23l-8.38-8.22c7.46-.92,15.42,1.27,20.57,6.32l5.81,5.71a5.36,5.36,0,0,0,7.5,0A5.14,5.14,0,0,0,100.06,166.42ZM65,347.47A7.32,7.32,0,0,0,58,355a3,3,0,0,1-.73,1.86A3.28,3.28,0,0,1,55.44,358a7.31,7.31,0,0,0-4.65,3.09,7.21,7.21,0,0,0-1.1,5.47,7.34,7.34,0,0,0,7.15,5.88,7,7,0,0,0,1.44-.15A17.78,17.78,0,0,0,68.61,366a17.41,17.41,0,0,0,4-11.44A7.32,7.32,0,0,0,65,347.47Zm.34,15.92a13.61,13.61,0,0,1-7.9,4.9,3.18,3.18,0,0,1-2.38-.48,3.09,3.09,0,0,1-1.34-2,3.16,3.16,0,0,1,2.48-3.72,7.34,7.34,0,0,0,4.21-2.64,7,7,0,0,0,1.64-4.58,3.18,3.18,0,0,1,3.08-3.26h.1a3.18,3.18,0,0,1,3.18,3.08A13.28,13.28,0,0,1,65.38,363.39ZM19.47,471.28A11.3,11.3,0,0,0,7.66,460.49,11.08,11.08,0,0,0,0,464.28v15.29a11.49,11.49,0,0,0,2.2-7.25A6.23,6.23,0,0,1,8,465.69a6.16,6.16,0,0,1,6.46,5.89,24.49,24.49,0,0,1-4.73,15.65A23.6,23.6,0,0,1,0,495.16v5.57a28.51,28.51,0,0,0,13.76-10.4A29.81,29.81,0,0,0,19.47,471.28Zm1330.4-321.95-4-4c-7.91-7.78-21.84-8.84-31-2.38a3.57,3.57,0,0,0-.85,5,3.7,3.7,0,0,0,5,.88l8.11,8c4.2,4.13,5.17,8.22,4.57,11.84a40.35,40.35,0,0,1-24.87-11.77c-7-6.9-11.28-15.68-12-24.45,3.69-.59,7.84.36,12.05,4.5a3.69,3.69,0,0,0,5.16,0,3.56,3.56,0,0,0,0-5.09c-6.44-6.33-14.28-8.23-22-5.59a2.51,2.51,0,0,0-.46.16,26.48,26.48,0,0,0-6.64,3.62c-16,11.76-25.6,41.67-14,62.6a3.58,3.58,0,0,0,1.47,1.44,45.09,45.09,0,0,0,21.34,5c16.86,0,34-7.88,42.34-18.79a26.29,26.29,0,0,0,3.68-6.52,4.34,4.34,0,0,0,.16-.47c2.67-7.56.75-15.27-5.7-21.6l-5.78-5.69c5.15-.63,10.65.88,14.19,4.37l4,3.95a3.68,3.68,0,0,0,5.17,0A3.56,3.56,0,0,0,1349.87,149.33Zm-21.62,26.73c-9.82,12.91-35.52,21-53.36,12.25-8.93-17.54-.67-42.8,12.46-52.46l.45-.33A47,47,0,0,0,1301.63,162a48.33,48.33,0,0,0,26.95,13.59Zm-151,187.1a7.32,7.32,0,0,0-7.09,7.52,3,3,0,0,1-.73,1.86,3.21,3.21,0,0,1-1.78,1.18,7.29,7.29,0,0,0,1.4,14.44,8,8,0,0,0,1.45-.14,17.84,17.84,0,0,0,10.32-6.35,17.48,17.48,0,0,0,4-11.44A7.31,7.31,0,0,0,1177.22,363.16Zm.34,15.92a13.64,13.64,0,0,1-7.9,4.89,3.13,3.13,0,0,1-2.38-.47,3.16,3.16,0,0,1,1.14-5.73,7.29,7.29,0,0,0,4.2-2.64,7,7,0,0,0,1.65-4.58,3.19,3.19,0,0,1,3.08-3.27h.1a3.19,3.19,0,0,1,3.18,3.08A13.27,13.27,0,0,1,1177.56,379.08ZM1287.89,324a22.9,22.9,0,0,1-13.2-9.11,24.46,24.46,0,0,1-4.73-15.64,6.11,6.11,0,1,1,12.2.73,11.71,11.71,0,0,0,2.32,7.43,2.5,2.5,0,0,0,3.55.54,2.63,2.63,0,0,0,.52-3.64,6.52,6.52,0,0,1-1.33-4A11.18,11.18,0,1,0,1264.9,299a29.79,29.79,0,0,0,5.72,19.06,28,28,0,0,0,16.15,11.08,2.74,2.74,0,0,0,.56.06,2.56,2.56,0,0,0,2.48-2A2.6,2.6,0,0,0,1287.89,324Z"/></g></g></g></svg>