<svg xmlns="http://www.w3.org/2000/svg" xmlns:xlink="http://www.w3.org/1999/xlink" viewBox="0 0 30.5 22.65"><defs><style>.cls-1{fill:url(#linear-gradient);}.cls-2{fill:url(#linear-gradient-2);}</style><linearGradient id="linear-gradient" x1="0.18" y1="-6.33" x2="21.44" y2="7.17" gradientUnits="userSpaceOnUse"><stop offset="0" stop-color="#f5bf91"/><stop offset="1" stop-color="#e97c68"/></linearGradient><linearGradient id="linear-gradient-2" x1="-3.89" y1="1.13" x2="24.48" y2="19.13" xlink:href="#linear-gradient"/></defs><title>Asset 14</title><g id="Layer_2" data-name="Layer 2"><g id="Layer_1-2" data-name="Layer 1"><path class="cls-1" d="M13.15,13.82a8.5,8.5,0,0,1-1.9-1.37L.93,2.84A1.85,1.85,0,0,1,.36.9,1.74,1.74,0,0,1,2,0H28.44a2.18,2.18,0,0,1,1.7,1c.32.57-.12,1.5-.6,1.94L18.21,13.25A5.07,5.07,0,0,1,13.15,13.82Z"/><path class="cls-2" d="M2.1,22.65S0,22.46,0,20.59V5.32C0,4.67.37,4.51.84,5L5.3,9.43a1.91,1.91,0,0,1,.38,1.93L2.47,19c-.26.61-.14.68.26.16l4.49-5.81a1.15,1.15,0,0,1,1.64-.19l2,1.61a8.16,8.16,0,0,0,2,1.18c1.46.49,4,1.06,5.68-.37l2.89-2.45a1.1,1.1,0,0,1,1.61.19l4.75,6.34c.39.53.51.46.26-.15l-3.28-8.08a1.92,1.92,0,0,1,.39-1.93L29.66,5c.46-.46.84-.3.84.35v15.4a2.11,2.11,0,0,1-2.22,1.93Z"/></g></g></svg>