<svg xmlns="http://www.w3.org/2000/svg" xmlns:xlink="http://www.w3.org/1999/xlink" viewBox="0 0 1366 676"><defs><style>.cls-1{fill-rule:evenodd;fill:url(#radial-gradient);}.cls-2,.cls-3{opacity:0.15;}.cls-2{fill:url(#linear-gradient);}.cls-3{fill:url(#linear-gradient-2);}</style><radialGradient id="radial-gradient" cx="683" cy="338" r="707.96" gradientUnits="userSpaceOnUse"><stop offset="0" stop-color="#f5bf91"/><stop offset="1" stop-color="#e97c68"/></radialGradient><linearGradient id="linear-gradient" x1="621.43" y1="752.81" x2="621.43" y2="340.08" gradientUnits="userSpaceOnUse"><stop offset="0" stop-color="#b93514"/><stop offset="1" stop-color="#fff"/></linearGradient><linearGradient id="linear-gradient-2" x1="963.84" y1="1223.59" x2="963.84" y2="722.6" gradientTransform="matrix(1, 0, 0, -1, 0, 1098.87)" xlink:href="#linear-gradient"/></defs><title>screenshoot bg</title><g id="Layer_2" data-name="Layer 2"><g id="Layer_1-2" data-name="Layer 1"><path class="cls-1" d="M0,0V676H1366V0Z"/><path class="cls-2" d="M1025.35,666.67A432.38,432.38,0,0,0,859.89,451.56L715.21,353.41a168.42,168.42,0,0,0-189.44.23L382.31,451.48A432.43,432.43,0,0,0,214.37,676h814.12Q1027,671.32,1025.35,666.67Z"/><path class="cls-3" d="M561.68,0A432.4,432.4,0,0,0,744.31,284.39l143.46,97.84a168.42,168.42,0,0,0,189.44.23l144.68-98.15A432.2,432.2,0,0,0,1366,119.7V0Z"/></g></g></svg>